<svg version="1.1" id="Layer_1" xmlns="http://www.w3.org/2000/svg" xmlns:xlink="http://www.w3.org/1999/xlink" x="0px" y="0px"
	 width="100%" viewBox="0 0 667 316" enable-background="new 0 0 667 316" xml:space="preserve">
<path fill="#000000" opacity="1.000000" stroke="none" 
	d="
M389.000000,317.000000 
	C259.333374,317.000000 130.166733,317.000000 1.000069,317.000000 
	C1.000046,211.666718 1.000046,106.333443 1.000023,1.000126 
	C223.333237,1.000084 445.666473,1.000084 667.999756,1.000042 
	C667.999878,106.333199 667.999878,211.666397 667.999939,316.999817 
	C575.166687,317.000000 482.333344,317.000000 389.000000,317.000000 
M513.002441,203.001221 
	C513.002441,203.001221 513.052979,202.947861 512.972412,202.474304 
	C512.972412,202.474304 512.829285,202.015732 512.999634,201.297607 
	C513.012817,199.564774 513.026001,197.831955 513.778198,195.996552 
	C514.790894,195.660553 515.803589,195.324539 516.982239,194.331543 
	C516.929199,193.886154 516.876221,193.440781 516.921387,192.465454 
	C516.617859,192.369110 516.314392,192.272766 515.312561,192.012344 
	C511.143799,191.380157 513.306274,188.142151 512.997437,185.129532 
	C515.895752,184.747269 518.846375,184.578079 521.668152,183.884369 
	C522.903076,183.580765 523.874390,182.205109 524.965454,181.316284 
	C523.921143,180.549667 522.938660,179.251404 521.820374,179.121475 
	C519.058899,178.800568 516.203186,179.284241 513.443481,178.955780 
	C508.514008,178.369049 507.306519,180.676239 507.906769,185.584366 
	C507.285889,185.684906 506.665009,185.785446 505.979980,185.152985 
	C502.608917,178.321274 491.952087,176.219254 487.835907,181.077271 
	C486.766083,180.346100 485.820984,179.159286 484.818909,179.109070 
	C480.509827,178.893066 476.168060,178.810760 471.875854,179.152618 
	C470.844543,179.234741 469.165924,181.103943 469.131409,182.193893 
	C468.889862,189.829010 468.879547,197.479324 469.133087,205.113602 
	C469.170685,206.245514 470.870880,208.109070 472.001465,208.275085 
	C475.901398,208.847641 479.893921,208.995529 483.841522,208.901108 
	C484.908600,208.875610 485.941498,207.421844 486.990082,206.623672 
	C485.868713,205.751083 484.844147,204.347656 483.604858,204.121674 
	C481.353271,203.711151 478.806396,204.504318 476.711670,203.807037 
	C475.478668,203.396591 474.325165,201.133392 474.189026,199.609390 
	C474.098328,198.594070 475.790741,197.337448 476.821381,196.327957 
	C477.779205,195.389755 478.917572,194.635925 479.976471,193.800919 
	C479.053619,192.990280 478.196442,191.589493 477.195740,191.478149 
	C474.017670,191.124496 473.540192,188.934036 474.155090,186.784012 
	C474.492401,185.604523 476.426178,184.264282 477.767487,184.110901 
	C481.108459,183.728912 484.522430,183.985153 487.369476,183.985153 
	C487.623322,187.125854 487.901093,190.562775 488.023041,194.444366 
	C488.023041,194.444366 487.965271,194.912003 487.453949,195.083450 
	C487.619781,195.411331 487.785583,195.739227 487.997192,196.000488 
	C487.997192,196.000488 487.936401,196.053909 487.998352,196.962082 
	C488.002472,199.283981 488.104767,201.610840 487.988037,203.926651 
	C487.805389,207.551102 489.361694,208.675888 493.047638,207.499100 
	C493.047638,204.040070 493.047638,200.575287 493.665558,196.870422 
	C495.447601,198.821228 497.368286,200.665253 498.974823,202.751236 
	C500.778687,205.093506 501.210449,209.189590 506.527252,207.399200 
	C505.091400,204.438248 503.612579,201.697647 502.443665,198.830673 
	C501.955292,197.632874 502.125641,196.166504 502.524292,194.923813 
	C502.708527,194.631653 502.892761,194.339493 503.008850,194.006454 
	C503.008850,194.006454 503.044067,194.077682 503.559235,193.934433 
	C503.735687,193.637329 503.912109,193.340225 504.013397,193.006714 
	C504.013397,193.006714 504.056335,193.078339 504.661896,192.845444 
	C505.051575,191.894058 505.441254,190.942688 505.988831,189.363358 
	C506.030457,188.934418 506.072083,188.505478 506.023132,188.022278 
	C506.023132,188.022278 506.076263,188.113510 506.749084,188.027176 
	C507.222229,189.354355 507.695374,190.681519 508.029572,192.497498 
	C508.077545,192.659927 508.125549,192.822372 508.020721,193.654846 
	C508.074371,194.106766 508.128021,194.558685 508.027191,195.789612 
	C507.973694,196.844620 507.920197,197.899612 507.327576,199.137375 
	C507.606720,199.762039 507.885834,200.386703 508.016296,201.796509 
	C508.067169,202.856934 508.118042,203.917374 508.018524,205.642502 
	C508.077820,206.089691 508.137146,206.536880 508.315979,207.753799 
	C509.865875,207.872726 511.415741,207.991669 513.213684,208.713776 
	C514.145996,208.418976 515.078247,208.124161 516.902954,207.976089 
	C519.577271,207.976089 522.251648,207.976089 524.925964,207.976089 
	C525.123047,207.441971 525.320068,206.907867 525.517090,206.373749 
	C524.301819,205.587021 523.168823,204.367264 521.851624,204.117294 
	C519.979553,203.761978 517.972168,204.119781 515.396240,204.014511 
	C514.966003,203.997025 514.535706,203.979538 513.932678,203.460297 
	C513.637512,203.288391 513.342285,203.116486 513.002441,203.001221 
M227.006195,176.019928 
	C227.006195,176.019928 227.035919,176.090393 227.782867,175.992355 
	C228.558365,175.338257 229.333878,174.684143 230.762161,173.754990 
	C231.837692,171.986450 233.676422,170.290634 233.853073,168.436462 
	C234.522156,161.413528 234.576324,154.334503 235.018265,147.286346 
	C235.223389,144.015167 233.963928,142.879074 230.700790,142.953110 
	C223.035950,143.126999 215.358551,143.162003 207.701599,142.861603 
	C206.425613,142.811539 204.296509,140.891525 204.162445,139.661179 
	C203.713211,135.538666 204.087021,131.334320 203.967407,127.166420 
	C203.713104,118.306175 198.177231,111.611298 190.622589,111.471581 
	C184.258835,111.353897 177.885162,111.927193 171.514206,111.976204 
	C168.485672,111.999504 167.970093,113.522308 167.994675,116.079422 
	C168.079391,124.896088 168.027267,133.714066 168.027267,143.097855 
	C161.160065,143.097855 154.344788,142.197083 147.916580,143.387115 
	C142.909286,144.314102 138.365356,147.838562 138.035507,154.127075 
	C137.682816,160.850952 137.184479,167.576431 137.185287,174.301163 
	C137.185425,175.524704 139.246078,177.771347 140.411652,177.809021 
	C149.499542,178.102646 158.601166,177.971375 167.996246,177.971375 
	C167.996246,183.323288 167.969345,188.295959 168.003357,193.268219 
	C168.042145,198.941635 170.450653,203.166031 175.042389,206.692200 
	C180.935089,211.217407 187.563766,208.746231 193.821671,209.617310 
	C195.154510,209.802841 196.504745,209.864609 197.847427,209.977875 
	C200.674744,210.216385 203.729111,209.922836 203.864700,206.513046 
	C204.168579,198.871826 203.806305,191.206284 203.895203,183.552734 
	C203.916306,181.736511 204.646042,179.928528 205.972122,177.999496 
	C211.684937,177.675461 217.397736,177.351425 223.561859,176.977448 
	C223.561859,176.977448 223.989883,176.825882 224.692734,176.987549 
	C225.487823,176.673798 226.282898,176.360031 227.006195,176.019928 
M337.183868,184.692169 
	C338.155487,184.473419 339.127136,184.254654 340.683380,183.799164 
	C340.158112,182.854782 339.632874,181.910385 338.945160,180.445160 
	C338.646027,180.254974 338.346863,180.064789 337.904388,179.363434 
	C337.595795,179.295456 337.287201,179.227478 336.127350,179.013901 
	C333.383392,179.665085 330.639435,180.316284 327.297424,181.015930 
	C326.852051,181.307724 326.406677,181.599503 325.311066,182.170578 
	C324.932220,183.452896 324.553345,184.735214 323.888580,186.646790 
	C323.756165,191.291245 327.044037,194.016632 330.569885,194.765533 
	C335.602417,195.834427 336.789734,198.174408 335.440826,203.848923 
	C331.375061,202.894669 327.355316,201.951202 323.289856,200.997025 
	C323.226074,206.617859 326.824402,208.467941 333.833893,208.154938 
	C338.161133,207.961716 340.152679,205.473633 340.806427,202.344528 
	C341.684845,198.139923 341.227478,193.808716 336.224976,191.637024 
	C334.063599,190.698700 332.148560,189.192963 330.009827,187.297943 
	C329.947266,186.866760 329.884674,186.435562 329.975891,185.382431 
	C329.994537,184.955795 330.013184,184.529175 330.891510,183.997955 
	C332.909363,184.022720 334.927185,184.047485 336.984863,184.022278 
	C336.984863,184.022278 336.927490,184.049194 337.183868,184.692169 
M440.996887,138.692581 
	C441.061890,139.122116 441.126923,139.551651 441.089630,140.512772 
	C441.382080,140.702820 441.674530,140.892883 442.135315,141.639694 
	C442.479736,142.092987 442.824158,142.546280 443.023224,143.488297 
	C443.067810,143.652313 443.112366,143.816315 443.171265,144.699982 
	C444.467346,147.231567 445.629730,149.843918 447.096527,152.272369 
	C448.610962,154.779663 450.467194,155.960281 453.617981,154.119995 
	C456.475983,152.450699 458.045044,150.961792 456.165924,147.586868 
	C453.994415,143.686752 452.051300,139.659485 449.740021,135.164291 
	C450.552826,134.533813 451.481995,133.833679 452.389160,133.106049 
	C457.024628,129.387848 458.469696,124.029503 456.685150,119.030861 
	C455.070557,114.508141 452.219818,109.618515 445.735352,109.932114 
	C441.780060,110.123405 437.799316,110.172676 433.847351,109.961472 
	C427.321655,109.612709 425.905060,110.732414 426.055695,117.394211 
	C426.166473,122.293663 426.919830,127.185829 426.899078,132.079178 
	C426.874054,137.981552 426.403046,143.886581 425.992401,149.781235 
	C425.696442,154.030106 429.391968,154.700546 431.661011,154.631607 
	C433.480377,154.576309 436.240509,151.953461 436.748230,149.994507 
	C437.540802,146.936264 436.661316,143.472672 436.744720,140.187286 
	C436.773346,139.060349 437.565369,137.952789 438.611969,137.081451 
	C439.371002,137.402756 440.130066,137.724045 440.996887,138.692581 
M101.271744,123.232773 
	C100.023178,127.323677 98.774620,131.414597 97.526054,135.505493 
	C98.096832,135.755020 98.667610,136.004547 99.238388,136.254089 
	C101.195648,134.180817 103.152916,132.107559 105.834007,129.980942 
	C108.061813,128.305359 110.749008,126.990013 112.410889,124.870667 
	C114.971390,121.605324 116.947800,117.854225 118.962921,114.194099 
	C125.441811,102.426292 135.749802,94.569542 146.965271,88.144440 
	C158.950302,81.278450 172.174988,78.949356 186.167969,78.722298 
	C198.383224,78.524094 209.880585,88.900139 209.116501,101.868752 
	C208.578842,110.994270 209.015579,120.177216 209.018082,129.334518 
	C209.019882,135.971375 209.020523,135.977478 215.411285,135.980484 
	C226.233551,135.985565 237.055969,136.007568 247.877945,135.951401 
	C249.303162,135.944016 251.042969,135.948227 252.076096,135.186356 
	C253.629562,134.040756 256.057861,131.504410 255.701492,130.825134 
	C254.594925,128.715927 252.476883,125.878784 250.526154,125.693420 
	C242.923035,124.970894 235.233505,125.120224 227.575119,125.037132 
	C225.021881,125.009422 222.465683,125.256798 219.910812,125.378426 
	C219.934219,122.760406 219.986374,120.142273 219.974991,117.524399 
	C219.951920,112.223267 219.844940,106.922127 219.861206,101.621262 
	C219.897079,89.920349 215.226532,80.192017 205.863892,73.613785 
	C195.016678,65.992477 182.333786,66.148369 169.920593,68.695984 
	C153.793427,72.005821 139.247635,78.596939 126.549484,89.627914 
	C115.751968,99.007805 107.497566,109.837311 101.271744,123.232773 
M161.667633,242.000259 
	C174.293655,253.138550 189.430923,252.946457 204.194458,249.581650 
	C223.855148,245.100708 241.103348,235.818848 254.734039,220.055161 
	C262.954681,210.548111 268.429230,199.765701 273.568176,188.637802 
	C274.376160,186.888199 273.681274,184.444550 273.681274,181.024765 
	C270.868622,184.193161 269.467743,186.615967 267.374176,187.958694 
	C262.602936,191.018768 259.114624,194.572876 256.267212,199.823761 
	C251.660172,208.319458 245.560516,216.160019 237.495590,221.932510 
	C232.007721,225.860443 226.489700,229.938705 220.462479,232.877914 
	C210.031906,237.964417 198.765259,239.976074 187.112106,240.443069 
	C175.026764,240.927383 162.456848,230.936615 162.932205,218.530655 
	C163.193542,211.709900 162.995270,204.871597 163.007690,198.041199 
	C163.011887,195.737961 163.171555,193.423889 162.999481,191.134354 
	C162.793686,188.395950 163.239365,184.610825 161.681931,183.253021 
	C160.131195,181.901077 156.448318,183.011963 153.700317,183.013123 
	C142.976608,183.017670 132.243622,182.787857 121.538620,183.233948 
	C119.822472,183.305466 116.571800,186.944229 116.914871,187.952240 
	C117.724289,190.330460 117.761696,195.251953 123.008003,193.086868 
	C123.998863,192.677948 125.314713,193.014236 126.477470,193.070953 
	C134.901672,193.481766 143.325058,193.909103 152.010147,194.344315 
	C152.010147,201.119339 152.075592,208.604340 151.989349,216.087616 
	C151.920837,222.033493 152.863876,227.675278 155.970993,232.866348 
	C157.772614,235.876343 159.385315,238.999405 160.350525,242.030533 
	C158.808441,240.456207 157.238464,238.908035 155.732758,237.299652 
	C154.433517,235.911804 153.485657,233.839813 151.905502,233.125854 
	C138.048492,226.864761 127.010735,216.973297 118.578590,204.782761 
	C109.220787,191.254013 104.431900,175.752716 105.060394,159.013824 
	C105.178848,155.859085 105.696037,152.523575 106.908722,149.641556 
	C110.906349,140.140900 119.031601,136.485870 128.647095,136.078857 
	C138.286789,135.670837 147.957092,135.991867 157.613968,135.980637 
	C162.251968,135.975250 163.174805,133.881699 162.841370,129.274094 
	C162.174332,120.056221 161.712494,110.729210 162.414261,101.542618 
	C162.823090,96.190697 162.786270,92.013855 158.361832,89.194473 
	C152.275620,90.275871 151.823837,94.311333 151.948853,99.077812 
	C152.173828,107.656769 152.012421,116.245857 152.012421,124.022270 
	C140.422302,125.055305 129.398682,125.361328 118.631134,127.181984 
	C107.158287,129.121902 100.256920,137.390717 96.101639,147.738663 
	C93.381973,154.511490 93.480347,161.723053 95.012344,168.861313 
	C96.626137,176.380737 97.604309,184.114441 100.021286,191.367584 
	C105.213959,206.950348 115.042923,219.483276 127.527435,230.031982 
	C137.885178,238.783707 149.431198,245.021561 163.136902,247.771835 
	C162.277832,245.488327 161.607758,243.707169 161.667633,242.000259 
M229.800949,192.987747 
	C234.131592,192.988266 238.473618,192.789719 242.790176,193.036469 
	C249.110046,193.397720 254.939316,192.323318 260.419830,188.946335 
	C269.655914,183.255264 276.363556,175.700699 277.535400,164.628174 
	C278.112244,159.177933 277.495148,153.545044 276.944794,148.042175 
	C275.182953,130.425491 267.953918,115.156364 256.965454,101.385452 
	C244.526779,85.797089 228.601547,76.003899 209.169601,71.369545 
	C211.079651,74.595970 213.239807,77.556328 215.768005,80.159164 
	C218.300812,82.766762 221.097168,85.149780 223.960785,87.398468 
	C231.110703,93.013008 239.330673,97.609230 245.382858,104.208397 
	C259.653381,119.768639 267.324402,138.341553 267.090881,159.882111 
	C267.006531,167.660461 260.676758,178.420853 252.023087,181.066391 
	C239.027420,185.039352 225.769882,182.540100 212.648666,182.617218 
	C209.478790,182.635849 209.009201,183.040771 209.011261,185.610199 
	C209.021423,198.268768 208.795975,210.935242 209.253342,223.577225 
	C209.320572,225.435562 212.462280,228.448380 214.427933,228.662277 
	C217.076828,228.950500 220.125565,227.252792 219.987808,223.331238 
	C219.675400,214.438187 219.306793,205.543655 219.269989,196.648453 
	C219.265015,195.443802 220.841187,193.501648 222.029282,193.182724 
	C224.173813,192.607071 226.578354,193.000031 229.800949,192.987747 
M459.018585,149.028748 
	C458.758087,153.132996 461.688690,154.821732 464.789703,154.774033 
	C467.902679,154.726181 469.951508,152.221375 469.976044,148.776352 
	C470.016968,143.032913 469.987213,137.288956 469.987213,131.588593 
	C472.448883,135.011978 474.820709,138.310486 478.010986,142.747162 
	C481.184662,137.746368 483.500671,134.097000 485.616364,130.763260 
	C485.616364,136.991135 485.602875,143.431992 485.621429,149.872742 
	C485.632538,153.732529 488.491333,154.510895 491.167511,153.801743 
	C492.997162,153.316925 495.428528,151.261612 495.706024,149.594696 
	C496.215118,146.536209 495.032715,143.240860 495.087677,140.053452 
	C495.232483,131.659943 495.846405,123.270798 495.819733,114.881363 
	C495.814606,113.263672 493.836609,110.390694 492.609467,110.302116 
	C490.084930,110.119888 486.757904,108.283546 484.849731,112.288910 
	C482.783966,116.625084 480.130310,120.681206 477.643768,125.015137 
	C475.325684,120.747093 473.098419,116.720871 470.943787,112.656158 
	C469.138214,109.249939 465.968536,109.881775 463.090546,110.110924 
	C462.034210,110.195038 460.354492,111.192833 460.178070,112.030548 
	C459.510193,115.202156 459.085846,118.475136 459.036530,121.717278 
	C458.902740,130.515396 459.007263,139.317139 459.018585,149.028748 
M379.005890,146.385666 
	C379.006409,147.051453 379.036041,147.718719 379.002502,148.382797 
	C378.842834,151.543884 378.639740,154.355072 383.426849,154.091827 
	C387.422272,153.872116 389.252899,152.927765 389.115448,148.411728 
	C388.786438,137.602661 389.108124,126.775093 388.912781,115.959587 
	C388.869415,113.560013 387.775818,111.179405 387.109406,108.569252 
	C383.894409,109.681572 380.319275,109.866730 379.563080,111.422256 
	C378.376343,113.863434 379.089142,117.229073 379.003235,120.203369 
	C378.988831,120.702278 378.950500,121.208679 379.012756,121.700287 
	C379.467468,125.291222 378.624817,127.315407 374.275909,127.116051 
	C370.439392,126.940178 367.197723,127.139862 367.920349,121.739693 
	C368.268951,119.134598 367.839172,116.434944 368.017487,113.795364 
	C368.327759,109.202156 364.434723,109.098396 362.069885,109.286560 
	C359.466339,109.493698 357.193146,111.731148 357.665527,115.189812 
	C357.864594,116.647423 357.998840,118.126396 358.002991,119.596115 
	C358.031586,129.749344 358.139618,139.904938 357.952850,150.054794 
	C357.886505,153.658981 360.098785,154.826324 362.732269,154.870178 
	C365.538452,154.916916 368.202972,154.003937 368.031525,150.038528 
	C367.818604,145.113556 367.980499,140.172379 367.980499,135.254944 
	C371.946503,135.254944 375.350281,135.254944 379.005341,135.254944 
	C379.005341,138.815842 379.005341,142.117310 379.005890,146.385666 
M409.232391,109.010658 
	C405.713104,108.761253 402.259308,109.522881 401.117950,113.073761 
	C397.547333,124.181877 394.397888,135.425415 391.087738,146.617203 
	C389.900757,150.630539 391.536377,154.747101 394.762726,154.877167 
	C398.581696,155.031113 400.512878,152.613449 401.049896,148.858017 
	C401.234833,147.564545 402.001587,145.373398 402.687195,145.299255 
	C405.956207,144.945740 409.415222,144.675888 412.534607,145.459457 
	C413.734253,145.760773 414.209686,148.937454 415.019012,150.802307 
	C416.026520,153.123810 416.806335,155.593048 420.343018,154.279099 
	C423.788452,152.999023 426.045776,151.375137 424.684113,147.131775 
	C422.337524,139.819077 420.785431,132.188950 417.784576,125.168808 
	C415.458740,119.727760 416.796387,112.365906 409.232391,109.010658 
M508.985443,146.176315 
	C512.732727,145.813614 516.487122,145.217621 520.219788,145.332047 
	C520.799927,145.349838 520.973267,148.797226 521.888672,150.327164 
	C522.927002,152.062439 524.852600,154.861771 525.927063,154.664429 
	C528.552307,154.182251 530.909180,152.239014 533.325256,150.910751 
	C531.975342,147.944336 530.733948,145.843338 530.036194,143.575119 
	C526.928711,133.472931 523.881653,123.349640 521.022095,113.175133 
	C520.070129,109.787842 517.446533,108.951050 514.861328,109.167336 
	C512.459351,109.368286 509.862885,109.525375 508.760925,113.346657 
	C505.365509,125.121361 501.161835,136.662292 497.307404,148.305725 
	C496.183258,151.701462 498.261078,153.291275 501.055511,153.938858 
	C506.832153,155.277512 507.748138,151.084961 508.985443,146.176315 
M339.056152,110.007027 
	C336.562225,110.008293 334.068298,110.004417 331.574402,110.011856 
	C325.482391,110.030014 325.029541,110.477676 325.026062,116.530937 
	C325.019775,127.473579 324.774323,138.426910 325.247864,149.348923 
	C325.332031,151.289490 328.108490,154.075500 330.191589,154.735367 
	C333.111481,155.660324 336.189758,151.942154 336.027283,149.099426 
	C335.835876,145.751190 335.982391,142.383636 335.982391,139.565109 
	C339.370392,138.937820 341.902924,138.421082 344.451935,138.005402 
	C354.616364,136.347748 356.841614,128.286591 355.893158,120.286446 
	C355.068390,113.329948 347.449371,108.711151 339.056152,110.007027 
M559.044861,150.429459 
	C560.361145,147.871658 562.115967,145.436096 562.872253,142.722229 
	C563.651733,139.924622 562.566711,137.372513 559.103210,137.034668 
	C555.840393,136.716400 553.270569,137.250336 552.901794,141.485428 
	C552.679138,144.041946 551.324158,146.878693 547.969482,145.292221 
	C545.999390,144.360550 543.419739,142.301926 543.213257,140.508591 
	C542.588806,135.083679 542.617065,129.502487 543.176880,124.063118 
	C543.394897,121.944778 545.405212,118.757057 547.143066,118.343727 
	C549.730042,117.728470 552.589600,118.946274 553.216919,122.890305 
	C553.464783,124.449066 556.032349,126.651344 557.640930,126.737061 
	C559.891479,126.856987 562.843994,125.778450 562.927490,122.538559 
	C563.023865,118.800911 562.545166,115.546738 558.899048,112.835808 
	C554.433838,109.515839 549.985229,109.405396 544.916748,109.930290 
	C540.033264,110.436020 533.652649,114.840881 533.322327,119.464645 
	C532.836609,126.263191 532.443787,133.185669 533.211914,139.918381 
	C533.797852,145.054367 534.446533,151.526932 540.842285,153.111679 
	C546.723083,154.568832 553.143799,156.014771 559.044861,150.429459 
M583.464844,153.000748 
	C583.976379,150.857941 584.631104,148.737503 584.970215,146.567764 
	C585.716431,141.792542 585.546143,136.718857 587.152283,132.273712 
	C589.038025,127.055145 592.035522,122.107872 595.266724,117.550522 
	C597.528076,114.361130 597.592468,112.294327 594.476624,110.159927 
	C590.740906,107.600899 588.691223,110.120522 587.065552,112.938759 
	C584.614807,117.187645 582.414551,121.581085 579.783997,126.521194 
	C578.419739,123.699356 577.311401,121.115524 575.951782,118.671463 
	C574.387634,115.859642 573.016235,112.718361 570.731567,110.625954 
	C569.635681,109.622292 566.438721,110.249634 564.570618,111.035278 
	C563.653015,111.421158 562.874512,114.103508 563.295166,115.304688 
	C564.226990,117.966110 565.924866,120.366676 567.366455,122.840904 
	C571.674377,130.234711 576.342590,137.246155 575.195435,146.726456 
	C574.280701,154.285812 575.135803,154.478607 583.464844,153.000748 
M431.144440,193.614532 
	C429.272156,190.092056 427.454559,186.539154 425.514099,183.054642 
	C422.983948,178.511078 422.942017,178.534424 418.676636,180.762955 
	C419.047546,182.283508 419.582336,183.530960 419.621155,184.793671 
	C419.821838,191.320999 419.750183,197.860931 420.140961,204.374420 
	C420.215729,205.620087 421.938232,206.766907 422.900513,207.959320 
	C423.598938,206.667175 424.792297,205.414764 424.899841,204.075180 
	C425.183502,200.542450 424.995819,196.971878 424.995819,192.276901 
	C428.604156,198.899506 430.357910,205.490891 437.175446,209.783142 
	C437.175446,198.782654 437.175446,188.942123 437.175446,179.101578 
	C436.487823,178.911621 435.800232,178.721649 435.112610,178.531693 
	C434.410126,180.079422 433.350739,181.567093 433.078186,183.187164 
	C432.479919,186.743362 432.279877,190.366562 431.144440,193.614532 
M447.968903,201.438766 
	C448.334015,203.958755 448.699127,206.478745 449.166901,209.707489 
	C455.884430,205.718781 451.340302,199.622360 453.553314,195.164490 
	C455.838013,195.164490 458.268860,195.164490 460.855103,195.164490 
	C461.288452,199.692566 461.710266,204.100235 462.132050,208.507904 
	C462.813171,208.696045 463.494263,208.884186 464.175385,209.072311 
	C464.823975,207.519119 465.654053,206.011826 466.062347,204.397858 
	C466.375305,203.160767 466.123505,201.787628 466.178802,200.477371 
	C466.432251,194.472397 466.904236,188.464798 466.799866,182.466812 
	C466.779541,181.298721 464.545197,180.169159 463.332031,179.021820 
	C462.557251,180.236420 461.415009,181.364471 461.103271,182.688141 
	C460.736572,184.245148 461.360870,186.027267 461.037415,187.605606 
	C460.817352,188.679337 459.864014,190.222595 458.969940,190.437271 
	C453.384369,191.778397 453.095154,191.336304 452.959595,184.170593 
	C452.920105,182.083282 453.912231,178.687836 450.228088,179.298325 
	C448.897003,179.518906 447.200165,182.690231 447.157227,184.549423 
	C447.033417,189.910110 447.667206,195.288284 447.968903,201.438766 
M361.600800,181.037964 
	C356.946899,187.571228 358.696808,194.957413 359.624817,201.852356 
	C360.332245,207.108459 364.705383,209.340164 368.977234,208.486420 
	C374.672424,207.348206 376.995178,204.518417 376.996826,198.714188 
	C376.997711,195.560974 377.010345,192.407669 376.994232,189.254547 
	C376.946136,179.839890 370.856140,176.376373 361.600800,181.037964 
M379.008942,201.185715 
	C380.914490,208.622467 390.450409,211.107727 394.824615,205.862717 
	C396.478821,203.879242 396.641907,200.411026 396.871246,197.570068 
	C397.011322,195.835358 396.270966,192.649048 395.426971,192.470261 
	C392.728821,191.898605 389.797668,192.426651 386.956482,192.530136 
	C386.910950,193.233536 386.865417,193.936935 386.819855,194.640335 
	C388.051483,195.095932 389.386688,195.383331 390.483093,196.058533 
	C391.416870,196.633621 392.738098,197.661423 392.730286,198.477844 
	C392.708069,200.794434 393.004059,203.528000 389.430145,204.039597 
	C385.912323,204.543167 384.411255,202.458481 384.102905,199.711227 
	C383.697113,196.095276 383.570068,192.326553 384.178619,188.769897 
	C384.478943,187.014877 386.441345,184.869370 388.139343,184.260391 
	C389.314850,183.838791 391.415497,185.609985 392.923767,186.658722 
	C393.733093,187.221466 394.164490,188.327713 394.766418,189.188705 
	C395.347443,189.116425 395.928436,189.044144 396.509460,188.971848 
	C396.509460,186.989197 397.116089,184.739059 396.384186,183.079117 
	C394.822510,179.537231 389.096100,177.871613 385.188629,179.298264 
	C381.068634,180.802505 379.250946,185.069107 379.735016,189.670792 
	C380.101746,193.156555 379.291718,196.766129 379.008942,201.185715 
M415.039886,194.410446 
	C414.014862,190.538452 413.235535,186.575089 411.845886,182.838730 
	C411.277557,181.310623 409.389099,180.273514 408.101257,179.013031 
	C407.066315,180.352341 405.709320,181.554855 405.069244,183.061859 
	C404.014038,185.546326 403.413483,188.224991 402.637238,190.826569 
	C401.094696,195.996078 399.549347,201.164871 398.053864,206.348022 
	C397.940277,206.741684 398.212311,207.246582 398.312164,207.734436 
	C399.862976,207.734436 401.270477,207.734436 402.677979,207.734436 
	C402.421631,207.331070 402.165283,206.927704 401.908936,206.524338 
	C403.458405,205.016724 404.815552,202.592361 406.602661,202.217468 
	C409.248749,201.662369 413.259521,200.553345 413.218536,206.026413 
	C413.211182,207.005829 415.437195,208.001968 416.905762,209.216873 
	C417.472687,207.905670 418.023743,207.268326 417.929199,206.748428 
	C417.216705,202.831772 416.377197,198.938217 415.039886,194.410446 
M342.444611,186.926468 
	C342.931519,193.618469 343.418457,200.310455 343.978210,208.003281 
	C347.215118,208.003281 350.884186,208.144592 354.533112,207.935196 
	C356.036804,207.848907 357.497223,207.008774 358.977325,206.511536 
	C357.489288,205.676895 355.938995,204.040741 354.524353,204.150681 
	C349.265869,204.559311 347.929688,201.803665 347.986603,197.341370 
	C348.045837,192.694138 348.159821,188.036057 347.895538,183.402924 
	C347.810730,181.916290 346.598999,180.493912 345.902832,179.042145 
	C345.148102,180.435303 344.360199,181.811813 343.650269,183.227448 
	C343.176880,184.171341 342.814545,185.170944 342.444611,186.926468 
z"/>
<path fill="#F5FEFE" opacity="1.000000" stroke="none" 
	d="
M205.049820,178.116745 
	C204.646042,179.928528 203.916306,181.736511 203.895203,183.552734 
	C203.806305,191.206284 204.168579,198.871826 203.864700,206.513046 
	C203.729111,209.922836 200.674744,210.216385 197.847427,209.977875 
	C196.504745,209.864609 195.154510,209.802841 193.821671,209.617310 
	C187.563766,208.746231 180.935089,211.217407 175.042389,206.692200 
	C170.450653,203.166031 168.042145,198.941635 168.003357,193.268219 
	C167.969345,188.295959 167.996246,183.323288 167.996246,177.971375 
	C158.601166,177.971375 149.499542,178.102646 140.411652,177.809021 
	C139.246078,177.771347 137.185425,175.524704 137.185287,174.301163 
	C137.184479,167.576431 137.682816,160.850952 138.035507,154.127075 
	C138.365356,147.838562 142.909286,144.314102 147.916580,143.387115 
	C154.344788,142.197083 161.160065,143.097855 168.027267,143.097855 
	C168.027267,133.714066 168.079391,124.896088 167.994675,116.079422 
	C167.970093,113.522308 168.485672,111.999504 171.514206,111.976204 
	C177.885162,111.927193 184.258835,111.353897 190.622589,111.471581 
	C198.177231,111.611298 203.713104,118.306175 203.967407,127.166420 
	C204.087021,131.334320 203.713211,135.538666 204.162445,139.661179 
	C204.296509,140.891525 206.425613,142.811539 207.701599,142.861603 
	C215.358551,143.162003 223.035950,143.126999 230.700790,142.953110 
	C233.963928,142.879074 235.223389,144.015167 235.018265,147.286346 
	C234.576324,154.334503 234.522156,161.413528 233.853073,168.436462 
	C233.676422,170.290634 231.837692,171.986450 230.100494,173.908783 
	C228.637848,174.738525 227.836884,175.414459 227.035919,176.090393 
	C227.035919,176.090393 227.006195,176.019928 226.707199,176.020294 
	C225.602097,176.289062 224.795990,176.557480 223.989883,176.825882 
	C223.989883,176.825882 223.561859,176.977448 222.919128,176.988739 
	C216.534195,177.372269 210.792007,177.744507 205.049820,178.116745 
M208.508514,153.975204 
	C204.846100,153.976242 201.183685,153.977829 197.521271,153.978195 
	C194.414993,153.978500 192.759201,152.858704 192.947327,149.317154 
	C193.211884,144.336975 192.988449,139.332016 193.016098,134.337891 
	C193.091064,120.799301 194.252731,121.791786 179.790451,122.091110 
	C179.635071,122.094322 179.481995,122.209450 179.094101,122.367676 
	C179.285995,125.786392 179.672073,129.291962 179.635010,132.793045 
	C179.579102,138.074875 178.408554,143.486847 179.239502,148.594971 
	C180.022568,153.408707 178.124405,153.978256 174.504532,153.977402 
	C168.677841,153.976059 162.851135,153.982788 157.024445,153.978287 
	C147.184921,153.970703 146.920837,154.256622 147.983185,163.975006 
	C148.054031,164.623199 148.022339,165.454468 148.401947,165.861160 
	C149.183945,166.698990 150.223907,167.929764 151.136856,167.912216 
	C159.034470,167.760437 166.925797,167.272598 174.823334,167.136169 
	C176.181412,167.112717 178.540375,168.043900 178.753937,168.936691 
	C179.542358,172.232819 179.932205,175.700806 179.899918,179.098740 
	C179.851776,184.165314 178.874863,189.247421 179.103226,194.286194 
	C179.394440,200.711945 184.740723,198.554306 188.464035,199.018677 
	C191.926239,199.450470 193.183838,198.057236 193.080200,194.517700 
	C192.861038,187.032639 193.050842,179.536438 192.989990,172.045502 
	C192.960968,168.476120 194.115784,166.667648 198.158035,166.991837 
	C205.208496,167.557266 212.298203,167.942688 219.360550,167.812485 
	C220.938095,167.783401 223.441544,165.534042 223.815842,163.913574 
	C224.531586,160.814972 224.023804,157.433762 224.023804,153.975800 
	C218.785522,153.975800 214.144440,153.975800 208.508514,153.975204 
z"/>
<path fill="#F4FEFE" opacity="1.000000" stroke="none" 
	d="
M161.083038,242.071579 
	C159.385315,238.999405 157.772614,235.876343 155.970993,232.866348 
	C152.863876,227.675278 151.920837,222.033493 151.989349,216.087616 
	C152.075592,208.604340 152.010147,201.119339 152.010147,194.344315 
	C143.325058,193.909103 134.901672,193.481766 126.477470,193.070953 
	C125.314713,193.014236 123.998863,192.677948 123.008003,193.086868 
	C117.761696,195.251953 117.724289,190.330460 116.914871,187.952240 
	C116.571800,186.944229 119.822472,183.305466 121.538620,183.233948 
	C132.243622,182.787857 142.976608,183.017670 153.700317,183.013123 
	C156.448318,183.011963 160.131195,181.901077 161.681931,183.253021 
	C163.239365,184.610825 162.793686,188.395950 162.999481,191.134354 
	C163.171555,193.423889 163.011887,195.737961 163.007690,198.041199 
	C162.995270,204.871597 163.193542,211.709900 162.932205,218.530655 
	C162.456848,230.936615 175.026764,240.927383 187.112106,240.443069 
	C198.765259,239.976074 210.031906,237.964417 220.462479,232.877914 
	C226.489700,229.938705 232.007721,225.860443 237.495590,221.932510 
	C245.560516,216.160019 251.660172,208.319458 256.267212,199.823761 
	C259.114624,194.572876 262.602936,191.018768 267.374176,187.958694 
	C269.467743,186.615967 270.868622,184.193161 273.681274,181.024765 
	C273.681274,184.444550 274.376160,186.888199 273.568176,188.637802 
	C268.429230,199.765701 262.954681,210.548111 254.734039,220.055161 
	C241.103348,235.818848 223.855148,245.100708 204.194458,249.581650 
	C189.430923,252.946457 174.293655,253.138550 161.337402,242.001114 
	C161.007172,242.001968 161.083038,242.071579 161.083038,242.071579 
z"/>
<path fill="#F4FEFD" opacity="1.000000" stroke="none" 
	d="
M160.972427,241.963989 
	C161.607758,243.707169 162.277832,245.488327 163.136902,247.771835 
	C149.431198,245.021561 137.885178,238.783707 127.527435,230.031982 
	C115.042923,219.483276 105.213959,206.950348 100.021286,191.367584 
	C97.604309,184.114441 96.626137,176.380737 95.012344,168.861313 
	C93.480347,161.723053 93.381973,154.511490 96.101639,147.738663 
	C100.256920,137.390717 107.158287,129.121902 118.631134,127.181984 
	C129.398682,125.361328 140.422302,125.055305 152.012421,124.022270 
	C152.012421,116.245857 152.173828,107.656769 151.948853,99.077812 
	C151.823837,94.311333 152.275620,90.275871 158.361832,89.194473 
	C162.786270,92.013855 162.823090,96.190697 162.414261,101.542618 
	C161.712494,110.729210 162.174332,120.056221 162.841370,129.274094 
	C163.174805,133.881699 162.251968,135.975250 157.613968,135.980637 
	C147.957092,135.991867 138.286789,135.670837 128.647095,136.078857 
	C119.031601,136.485870 110.906349,140.140900 106.908722,149.641556 
	C105.696037,152.523575 105.178848,155.859085 105.060394,159.013824 
	C104.431900,175.752716 109.220787,191.254013 118.578590,204.782761 
	C127.010735,216.973297 138.048492,226.864761 151.905502,233.125854 
	C153.485657,233.839813 154.433517,235.911804 155.732758,237.299652 
	C157.238464,238.908035 158.808441,240.456207 160.716782,242.051056 
	C161.083038,242.071579 161.007172,242.001968 160.972427,241.963989 
z"/>
<path fill="#F3FDFD" opacity="1.000000" stroke="none" 
	d="
M229.337616,192.988098 
	C226.578354,193.000031 224.173813,192.607071 222.029282,193.182724 
	C220.841187,193.501648 219.265015,195.443802 219.269989,196.648453 
	C219.306793,205.543655 219.675400,214.438187 219.987808,223.331238 
	C220.125565,227.252792 217.076828,228.950500 214.427933,228.662277 
	C212.462280,228.448380 209.320572,225.435562 209.253342,223.577225 
	C208.795975,210.935242 209.021423,198.268768 209.011261,185.610199 
	C209.009201,183.040771 209.478790,182.635849 212.648666,182.617218 
	C225.769882,182.540100 239.027420,185.039352 252.023087,181.066391 
	C260.676758,178.420853 267.006531,167.660461 267.090881,159.882111 
	C267.324402,138.341553 259.653381,119.768639 245.382858,104.208397 
	C239.330673,97.609230 231.110703,93.013008 223.960785,87.398468 
	C221.097168,85.149780 218.300812,82.766762 215.768005,80.159164 
	C213.239807,77.556328 211.079651,74.595970 209.169601,71.369545 
	C228.601547,76.003899 244.526779,85.797089 256.965454,101.385452 
	C267.953918,115.156364 275.182953,130.425491 276.944794,148.042175 
	C277.495148,153.545044 278.112244,159.177933 277.535400,164.628174 
	C276.363556,175.700699 269.655914,183.255264 260.419830,188.946335 
	C254.939316,192.323318 249.110046,193.397720 242.790176,193.036469 
	C238.473618,192.789719 234.131592,192.988266 229.337616,192.988098 
z"/>
<path fill="#F3FDFE" opacity="1.000000" stroke="none" 
	d="
M101.971336,122.899307 
	C107.497566,109.837311 115.751968,99.007805 126.549484,89.627914 
	C139.247635,78.596939 153.793427,72.005821 169.920593,68.695984 
	C182.333786,66.148369 195.016678,65.992477 205.863892,73.613785 
	C215.226532,80.192017 219.897079,89.920349 219.861206,101.621262 
	C219.844940,106.922127 219.951920,112.223267 219.974991,117.524399 
	C219.986374,120.142273 219.934219,122.760406 219.910828,125.378426 
	C222.465683,125.256798 225.021881,125.009422 227.575119,125.037132 
	C235.233505,125.120224 242.923035,124.970894 250.526154,125.693420 
	C252.476883,125.878784 254.594925,128.715927 255.701492,130.825134 
	C256.057861,131.504410 253.629562,134.040756 252.076096,135.186356 
	C251.042969,135.948227 249.303162,135.944016 247.877945,135.951401 
	C237.055969,136.007568 226.233551,135.985565 215.411285,135.980484 
	C209.020523,135.977478 209.019882,135.971375 209.018082,129.334518 
	C209.015579,120.177216 208.578842,110.994270 209.116501,101.868752 
	C209.880585,88.900139 198.383224,78.524094 186.167969,78.722298 
	C172.174988,78.949356 158.950302,81.278450 146.965271,88.144440 
	C135.749802,94.569542 125.441811,102.426292 118.962921,114.194099 
	C116.947800,117.854225 114.971390,121.605324 112.410889,124.870667 
	C110.749008,126.990013 108.061813,128.305359 105.060608,129.986023 
	C100.116402,128.737091 102.744118,125.262978 101.971336,122.899307 
z"/>
<path fill="#EFFBFC" opacity="1.000000" stroke="none" 
	d="
M459.017944,148.573090 
	C459.007263,139.317139 458.902740,130.515396 459.036530,121.717278 
	C459.085846,118.475136 459.510193,115.202156 460.178070,112.030548 
	C460.354492,111.192833 462.034210,110.195038 463.090546,110.110924 
	C465.968536,109.881775 469.138214,109.249939 470.943787,112.656158 
	C473.098419,116.720871 475.325684,120.747093 477.643768,125.015137 
	C480.130310,120.681206 482.783966,116.625084 484.849731,112.288910 
	C486.757904,108.283546 490.084930,110.119888 492.609467,110.302116 
	C493.836609,110.390694 495.814606,113.263672 495.819733,114.881363 
	C495.846405,123.270798 495.232483,131.659943 495.087677,140.053452 
	C495.032715,143.240860 496.215118,146.536209 495.706024,149.594696 
	C495.428528,151.261612 492.997162,153.316925 491.167511,153.801743 
	C488.491333,154.510895 485.632538,153.732529 485.621429,149.872742 
	C485.602875,143.431992 485.616364,136.991135 485.616364,130.763260 
	C483.500671,134.097000 481.184662,137.746368 478.010986,142.747162 
	C474.820709,138.310486 472.448883,135.011978 469.987213,131.588593 
	C469.987213,137.288956 470.016968,143.032913 469.976044,148.776352 
	C469.951508,152.221375 467.902679,154.726181 464.789703,154.774033 
	C461.688690,154.821732 458.758087,153.132996 459.017944,148.573090 
z"/>
<path fill="#F0FBFC" opacity="1.000000" stroke="none" 
	d="
M438.008606,136.836395 
	C437.565369,137.952789 436.773346,139.060349 436.744720,140.187286 
	C436.661316,143.472672 437.540802,146.936264 436.748230,149.994507 
	C436.240509,151.953461 433.480377,154.576309 431.661011,154.631607 
	C429.391968,154.700546 425.696442,154.030106 425.992401,149.781235 
	C426.403046,143.886581 426.874054,137.981552 426.899078,132.079178 
	C426.919830,127.185829 426.166473,122.293663 426.055695,117.394211 
	C425.905060,110.732414 427.321655,109.612709 433.847351,109.961472 
	C437.799316,110.172676 441.780060,110.123405 445.735352,109.932114 
	C452.219818,109.618515 455.070557,114.508141 456.685150,119.030861 
	C458.469696,124.029503 457.024628,129.387848 452.389160,133.106049 
	C451.481995,133.833679 450.552826,134.533813 449.740021,135.164291 
	C452.051300,139.659485 453.994415,143.686752 456.165924,147.586868 
	C458.045044,150.961792 456.475983,152.450699 453.617981,154.119995 
	C450.467194,155.960281 448.610962,154.779663 447.096527,152.272369 
	C445.629730,149.843918 444.467346,147.231567 443.308594,144.249084 
	C443.497467,143.697372 443.618835,143.554062 443.587982,143.503342 
	C443.475739,143.318665 443.312561,143.164963 443.168579,142.999573 
	C442.824158,142.546280 442.479736,142.092987 441.990692,141.135742 
	C441.700836,140.341705 441.482788,140.124832 441.191956,139.981186 
	C441.126923,139.551651 441.061890,139.122116 441.280670,138.312469 
	C442.021942,137.239639 442.479401,136.546890 442.936859,135.854141 
	C442.683350,135.598389 442.429840,135.342636 442.176331,135.086884 
	C440.787109,135.670059 439.397858,136.253220 438.008606,136.836395 
M446.436249,127.641991 
	C446.611725,127.057762 446.787231,126.473534 447.014404,125.430885 
	C447.014404,125.430885 447.171753,124.997215 447.627991,124.512215 
	C447.379700,123.353279 447.131409,122.194351 446.205170,120.705124 
	C443.276367,119.750839 440.347565,118.796562 436.353180,117.495102 
	C437.030853,122.305573 437.493225,125.587891 438.338806,129.421783 
	C439.559662,129.339569 440.780548,129.257339 442.436584,129.018967 
	C442.436584,129.018967 442.896118,128.967865 443.600616,128.987686 
	C444.388397,128.622864 445.176178,128.258057 445.971985,127.969772 
	C445.971985,127.969772 445.895599,127.960472 446.436249,127.641991 
z"/>
<path fill="#EFFCFC" opacity="1.000000" stroke="none" 
	d="
M379.005615,145.902222 
	C379.005341,142.117310 379.005341,138.815842 379.005341,135.254944 
	C375.350281,135.254944 371.946503,135.254944 367.980499,135.254944 
	C367.980499,140.172379 367.818604,145.113556 368.031525,150.038528 
	C368.202972,154.003937 365.538452,154.916916 362.732269,154.870178 
	C360.098785,154.826324 357.886505,153.658981 357.952850,150.054794 
	C358.139618,139.904938 358.031586,129.749344 358.002991,119.596115 
	C357.998840,118.126396 357.864594,116.647423 357.665527,115.189812 
	C357.193146,111.731148 359.466339,109.493698 362.069885,109.286560 
	C364.434723,109.098396 368.327759,109.202156 368.017487,113.795364 
	C367.839172,116.434944 368.268951,119.134598 367.920349,121.739693 
	C367.197723,127.139862 370.439392,126.940178 374.275909,127.116051 
	C378.624817,127.315407 379.467468,125.291222 379.012756,121.700287 
	C378.950500,121.208679 378.988831,120.702278 379.003235,120.203369 
	C379.089142,117.229073 378.376343,113.863434 379.563080,111.422256 
	C380.319275,109.866730 383.894409,109.681572 387.109406,108.569252 
	C387.775818,111.179405 388.869415,113.560013 388.912781,115.959587 
	C389.108124,126.775093 388.786438,137.602661 389.115448,148.411728 
	C389.252899,152.927765 387.422272,153.872116 383.426849,154.091827 
	C378.639740,154.355072 378.842834,151.543884 379.002502,148.382797 
	C379.036041,147.718719 379.006409,147.051453 379.005615,145.902222 
z"/>
<path fill="#F0FBFC" opacity="1.000000" stroke="none" 
	d="
M409.642944,109.026627 
	C416.796387,112.365906 415.458740,119.727760 417.784576,125.168808 
	C420.785431,132.188950 422.337524,139.819077 424.684113,147.131775 
	C426.045776,151.375137 423.788452,152.999023 420.343018,154.279099 
	C416.806335,155.593048 416.026520,153.123810 415.019012,150.802307 
	C414.209686,148.937454 413.734253,145.760773 412.534607,145.459457 
	C409.415222,144.675888 405.956207,144.945740 402.687195,145.299255 
	C402.001587,145.373398 401.234833,147.564545 401.049896,148.858017 
	C400.512878,152.613449 398.581696,155.031113 394.762726,154.877167 
	C391.536377,154.747101 389.900757,150.630539 391.087738,146.617203 
	C394.397888,135.425415 397.547333,124.181877 401.117950,113.073761 
	C402.259308,109.522881 405.713104,108.761253 409.642944,109.026627 
M409.960205,131.588516 
	C409.214539,129.511597 408.468903,127.434685 407.390778,124.431763 
	C406.338562,129.184753 405.526062,132.854843 404.671722,136.713913 
	C411.073669,135.871902 411.073669,135.871902 409.960205,131.588516 
z"/>
<path fill="#EFFCFC" opacity="1.000000" stroke="none" 
	d="
M508.785583,146.559555 
	C507.748138,151.084961 506.832153,155.277512 501.055511,153.938858 
	C498.261078,153.291275 496.183258,151.701462 497.307404,148.305725 
	C501.161835,136.662292 505.365509,125.121361 508.760925,113.346657 
	C509.862885,109.525375 512.459351,109.368286 514.861328,109.167336 
	C517.446533,108.951050 520.070129,109.787842 521.022095,113.175133 
	C523.881653,123.349640 526.928711,133.472931 530.036194,143.575119 
	C530.733948,145.843338 531.975342,147.944336 533.325256,150.910751 
	C530.909180,152.239014 528.552307,154.182251 525.927063,154.664429 
	C524.852600,154.861771 522.927002,152.062439 521.888672,150.327164 
	C520.973267,148.797226 520.799927,145.349838 520.219788,145.332047 
	C516.487122,145.217621 512.732727,145.813614 508.785583,146.559555 
M516.079651,129.481415 
	C515.713745,128.338303 515.347839,127.195183 514.564758,124.748840 
	C513.338196,129.642990 512.474915,133.087372 511.544952,136.798065 
	C514.255249,136.798065 516.016907,136.798065 517.817627,136.798065 
	C517.893250,136.126480 518.077881,135.623718 517.976318,135.187637 
	C517.577393,133.475433 517.088318,131.784241 516.079651,129.481415 
z"/>
<path fill="#EFFCFC" opacity="1.000000" stroke="none" 
	d="
M339.500427,110.006462 
	C347.449371,108.711151 355.068390,113.329948 355.893158,120.286446 
	C356.841614,128.286591 354.616364,136.347748 344.451935,138.005402 
	C341.902924,138.421082 339.370392,138.937820 335.982391,139.565109 
	C335.982391,142.383636 335.835876,145.751190 336.027283,149.099426 
	C336.189758,151.942154 333.111481,155.660324 330.191589,154.735367 
	C328.108490,154.075500 325.332031,151.289490 325.247864,149.348923 
	C324.774323,138.426910 325.019775,127.473579 325.026062,116.530937 
	C325.029541,110.477676 325.482391,110.030014 331.574402,110.011856 
	C334.068298,110.004417 336.562225,110.008293 339.500427,110.006462 
M340.281952,130.014252 
	C345.334747,129.666504 346.495117,128.283020 346.018250,123.174980 
	C345.607269,118.772713 343.347321,117.694130 336.013855,118.521164 
	C336.013855,121.301712 336.245087,124.134720 335.950409,126.911926 
	C335.640259,129.835266 337.051453,130.295547 340.281952,130.014252 
z"/>
<path fill="#EDFCFC" opacity="1.000000" stroke="none" 
	d="
M558.767700,150.712753 
	C553.143799,156.014771 546.723083,154.568832 540.842285,153.111679 
	C534.446533,151.526932 533.797852,145.054367 533.211914,139.918381 
	C532.443787,133.185669 532.836609,126.263191 533.322327,119.464645 
	C533.652649,114.840881 540.033264,110.436020 544.916748,109.930290 
	C549.985229,109.405396 554.433838,109.515839 558.899048,112.835808 
	C562.545166,115.546738 563.023865,118.800911 562.927490,122.538559 
	C562.843994,125.778450 559.891479,126.856987 557.640930,126.737061 
	C556.032349,126.651344 553.464783,124.449066 553.216919,122.890305 
	C552.589600,118.946274 549.730042,117.728470 547.143066,118.343727 
	C545.405212,118.757057 543.394897,121.944778 543.176880,124.063118 
	C542.617065,129.502487 542.588806,135.083679 543.213257,140.508591 
	C543.419739,142.301926 545.999390,144.360550 547.969482,145.292221 
	C551.324158,146.878693 552.679138,144.041946 552.901794,141.485428 
	C553.270569,137.250336 555.840393,136.716400 559.103210,137.034668 
	C562.566711,137.372513 563.651733,139.924622 562.872253,142.722229 
	C562.115967,145.436096 560.361145,147.871658 558.767700,150.712753 
z"/>
<path fill="#ECFCFC" opacity="1.000000" stroke="none" 
	d="
M583.161987,153.316284 
	C575.135803,154.478607 574.280701,154.285812 575.195435,146.726456 
	C576.342590,137.246155 571.674377,130.234711 567.366455,122.840904 
	C565.924866,120.366676 564.226990,117.966110 563.295166,115.304688 
	C562.874512,114.103508 563.653015,111.421158 564.570618,111.035278 
	C566.438721,110.249634 569.635681,109.622292 570.731567,110.625954 
	C573.016235,112.718361 574.387634,115.859642 575.951782,118.671463 
	C577.311401,121.115524 578.419739,123.699356 579.783997,126.521194 
	C582.414551,121.581085 584.614807,117.187645 587.065552,112.938759 
	C588.691223,110.120522 590.740906,107.600899 594.476624,110.159927 
	C597.592468,112.294327 597.528076,114.361130 595.266724,117.550522 
	C592.035522,122.107872 589.038025,127.055145 587.152283,132.273712 
	C585.546143,136.718857 585.716431,141.792542 584.970215,146.567764 
	C584.631104,148.737503 583.976379,150.857941 583.161987,153.316284 
z"/>
<path fill="#DEFDFC" opacity="1.000000" stroke="none" 
	d="
M488.178894,193.999680 
	C487.901093,190.562775 487.623322,187.125854 487.369476,183.985153 
	C484.522430,183.985153 481.108459,183.728912 477.767487,184.110901 
	C476.426178,184.264282 474.492401,185.604523 474.155090,186.784012 
	C473.540192,188.934036 474.017670,191.124496 477.195740,191.478149 
	C478.196442,191.589493 479.053619,192.990280 479.976471,193.800934 
	C478.917572,194.635925 477.779205,195.389755 476.821381,196.327957 
	C475.790741,197.337448 474.098328,198.594070 474.189026,199.609390 
	C474.325165,201.133392 475.478668,203.396591 476.711670,203.807037 
	C478.806396,204.504318 481.353271,203.711151 483.604858,204.121674 
	C484.844147,204.347656 485.868713,205.751083 486.990082,206.623657 
	C485.941498,207.421844 484.908600,208.875610 483.841522,208.901108 
	C479.893921,208.995529 475.901398,208.847641 472.001465,208.275085 
	C470.870880,208.109070 469.170685,206.245514 469.133087,205.113602 
	C468.879547,197.479324 468.889862,189.829010 469.131409,182.193893 
	C469.165924,181.103943 470.844543,179.234741 471.875854,179.152618 
	C476.168060,178.810760 480.509827,178.893066 484.818909,179.109070 
	C485.820984,179.159286 486.766083,180.346100 487.835907,181.077271 
	C491.952087,176.219254 502.608917,178.321274 506.001404,185.890869 
	C506.040649,187.123657 506.058472,187.618591 506.076263,188.113510 
	C506.076263,188.113510 506.023132,188.022278 505.707153,188.020660 
	C504.720337,187.521194 503.763855,187.164520 503.434357,186.497940 
	C502.588074,184.785950 502.019989,182.936447 501.340698,181.141907 
	C500.783173,181.322098 500.225647,181.502289 499.668121,181.682465 
	C499.447418,182.731674 499.226715,183.780869 498.619659,184.788940 
	C495.947998,183.413147 493.705353,183.264114 493.110016,186.307571 
	C492.552124,189.159698 492.454132,192.391571 496.811768,192.454025 
	C494.984039,192.880508 493.338348,192.949936 491.714722,193.177216 
	C490.521149,193.344299 489.356445,193.718033 488.178894,193.999680 
z"/>
<path fill="#EBFDFE" opacity="1.000000" stroke="none" 
	d="
M431.530823,193.788467 
	C432.279877,190.366562 432.479919,186.743362 433.078186,183.187164 
	C433.350739,181.567093 434.410126,180.079422 435.112610,178.531693 
	C435.800232,178.721649 436.487823,178.911621 437.175446,179.101578 
	C437.175446,188.942123 437.175446,198.782654 437.175446,209.783142 
	C430.357910,205.490891 428.604156,198.899506 424.995819,192.276901 
	C424.995819,196.971878 425.183502,200.542450 424.899841,204.075180 
	C424.792297,205.414764 423.598938,206.667175 422.900513,207.959320 
	C421.938232,206.766907 420.215729,205.620087 420.140961,204.374420 
	C419.750183,197.860931 419.821838,191.320999 419.621155,184.793671 
	C419.582336,183.530960 419.047546,182.283508 418.676636,180.762955 
	C422.942017,178.534424 422.983948,178.511078 425.514099,183.054642 
	C427.454559,186.539154 429.272156,190.092056 431.530823,193.788467 
z"/>
<path fill="#E8FEFE" opacity="1.000000" stroke="none" 
	d="
M447.986176,201.049179 
	C447.667206,195.288284 447.033417,189.910110 447.157227,184.549423 
	C447.200165,182.690231 448.897003,179.518906 450.228088,179.298325 
	C453.912231,178.687836 452.920105,182.083282 452.959595,184.170593 
	C453.095154,191.336304 453.384369,191.778397 458.969940,190.437271 
	C459.864014,190.222595 460.817352,188.679337 461.037415,187.605606 
	C461.360870,186.027267 460.736572,184.245148 461.103271,182.688141 
	C461.415009,181.364471 462.557251,180.236420 463.332031,179.021820 
	C464.545197,180.169159 466.779541,181.298721 466.799866,182.466812 
	C466.904236,188.464798 466.432251,194.472397 466.178802,200.477371 
	C466.123505,201.787628 466.375305,203.160767 466.062347,204.397858 
	C465.654053,206.011826 464.823975,207.519119 464.175385,209.072311 
	C463.494263,208.884186 462.813171,208.696045 462.132050,208.507904 
	C461.710266,204.100235 461.288452,199.692566 460.855103,195.164490 
	C458.268860,195.164490 455.838013,195.164490 453.553314,195.164490 
	C451.340302,199.622360 455.884430,205.718781 449.166901,209.707489 
	C448.699127,206.478745 448.334015,203.958755 447.986176,201.049179 
z"/>
<path fill="#E7FDFE" opacity="1.000000" stroke="none" 
	d="
M362.012238,180.999115 
	C370.856140,176.376373 376.946136,179.839890 376.994232,189.254547 
	C377.010345,192.407669 376.997711,195.560974 376.996826,198.714188 
	C376.995178,204.518417 374.672424,207.348206 368.977234,208.486420 
	C364.705383,209.340164 360.332245,207.108459 359.624817,201.852356 
	C358.696808,194.957413 356.946899,187.571228 362.012238,180.999115 
M364.447662,189.056534 
	C364.302216,192.343613 363.649567,195.719360 364.202881,198.884277 
	C364.530975,200.760986 366.761353,202.305145 368.136383,203.998840 
	C369.429596,202.055969 371.299988,200.265701 371.864563,198.130219 
	C372.515991,195.666245 371.939087,192.895065 372.030731,190.261993 
	C372.234833,184.396332 371.399628,183.640060 364.967590,184.466690 
	C364.967590,185.713333 364.967590,187.007889 364.447662,189.056534 
z"/>
<path fill="#E2FEFE" opacity="1.000000" stroke="none" 
	d="
M379.007141,200.753159 
	C379.291718,196.766129 380.101746,193.156555 379.735016,189.670792 
	C379.250946,185.069107 381.068634,180.802505 385.188629,179.298264 
	C389.096100,177.871613 394.822510,179.537231 396.384186,183.079117 
	C397.116089,184.739059 396.509460,186.989197 396.509460,188.971848 
	C395.928436,189.044144 395.347443,189.116425 394.766418,189.188705 
	C394.164490,188.327713 393.733093,187.221466 392.923767,186.658722 
	C391.415497,185.609985 389.314850,183.838791 388.139343,184.260391 
	C386.441345,184.869370 384.478943,187.014877 384.178619,188.769897 
	C383.570068,192.326553 383.697113,196.095276 384.102905,199.711227 
	C384.411255,202.458481 385.912323,204.543167 389.430145,204.039597 
	C393.004059,203.528000 392.708069,200.794434 392.730286,198.477844 
	C392.738098,197.661423 391.416870,196.633621 390.483093,196.058533 
	C389.386688,195.383331 388.051483,195.095932 386.819855,194.640335 
	C386.865417,193.936935 386.910950,193.233536 386.956482,192.530136 
	C389.797668,192.426651 392.728821,191.898605 395.426971,192.470261 
	C396.270966,192.649048 397.011322,195.835358 396.871246,197.570068 
	C396.641907,200.411026 396.478821,203.879242 394.824615,205.862717 
	C390.450409,211.107727 380.914490,208.622467 379.007141,200.753159 
z"/>
<path fill="#E6FDFD" opacity="1.000000" stroke="none" 
	d="
M415.308655,194.723938 
	C416.377197,198.938217 417.216705,202.831772 417.929199,206.748428 
	C418.023743,207.268326 417.472687,207.905670 416.905762,209.216873 
	C415.437195,208.001968 413.211182,207.005829 413.218536,206.026413 
	C413.259521,200.553345 409.248749,201.662369 406.602661,202.217468 
	C404.815552,202.592361 403.458405,205.016724 401.908936,206.524338 
	C402.165283,206.927704 402.421631,207.331070 402.677979,207.734436 
	C401.270477,207.734436 399.862976,207.734436 398.312164,207.734436 
	C398.212311,207.246582 397.940277,206.741684 398.053864,206.348022 
	C399.549347,201.164871 401.094696,195.996078 402.637238,190.826569 
	C403.413483,188.224991 404.014038,185.546326 405.069244,183.061859 
	C405.709320,181.554855 407.066315,180.352341 408.101257,179.013031 
	C409.389099,180.273514 411.277557,181.310623 411.845886,182.838730 
	C413.235535,186.575089 414.014862,190.538452 415.308655,194.723938 
M406.995361,191.821289 
	C406.662079,193.702637 406.328766,195.583984 405.944824,197.751282 
	C407.721191,197.751282 409.292145,197.751282 411.546906,197.751282 
	C410.384674,194.874725 409.382172,192.393433 408.379669,189.912125 
	C407.919617,190.277176 407.459595,190.642227 406.995361,191.821289 
z"/>
<path fill="#EDFEFE" opacity="1.000000" stroke="none" 
	d="
M330.031830,184.102539 
	C330.013184,184.529175 329.994537,184.955795 329.702942,185.869598 
	C329.660553,186.886154 329.891083,187.415573 330.121613,187.944977 
	C332.148560,189.192963 334.063599,190.698700 336.224976,191.637024 
	C341.227478,193.808716 341.684845,198.139923 340.806427,202.344528 
	C340.152679,205.473633 338.161133,207.961716 333.833893,208.154938 
	C326.824402,208.467941 323.226074,206.617859 323.289856,200.997025 
	C327.355316,201.951202 331.375061,202.894669 335.440826,203.848923 
	C336.789734,198.174408 335.602417,195.834427 330.569885,194.765533 
	C327.044037,194.016632 323.756165,191.291245 324.352631,186.285736 
	C325.198212,184.580231 325.579773,183.235748 325.961304,181.891296 
	C326.406677,181.599503 326.852051,181.307724 327.959106,180.998489 
	C329.895599,180.849747 331.170380,180.718445 332.579559,180.573303 
	C331.564087,181.979980 330.797974,183.041245 330.031830,184.102539 
z"/>
<path fill="#E5FEFE" opacity="1.000000" stroke="none" 
	d="
M342.423553,186.536041 
	C342.814545,185.170944 343.176880,184.171341 343.650269,183.227448 
	C344.360199,181.811813 345.148102,180.435303 345.902832,179.042145 
	C346.598999,180.493912 347.810730,181.916290 347.895538,183.402924 
	C348.159821,188.036057 348.045837,192.694138 347.986603,197.341370 
	C347.929688,201.803665 349.265869,204.559311 354.524353,204.150681 
	C355.938995,204.040741 357.489288,205.676895 358.977325,206.511536 
	C357.497223,207.008774 356.036804,207.848907 354.533112,207.935196 
	C350.884186,208.144592 347.215118,208.003281 343.978210,208.003281 
	C343.418457,200.310455 342.931519,193.618469 342.423553,186.536041 
z"/>
<path fill="#E9FDFD" opacity="1.000000" stroke="none" 
	d="
M506.412659,188.070343 
	C506.058472,187.618591 506.040649,187.123657 506.033478,186.257355 
	C506.665009,185.785446 507.285889,185.684906 508.261841,185.058624 
	C509.129730,183.814316 509.642578,183.095764 510.155426,182.377197 
	C511.048096,183.581055 511.940735,184.784927 512.833374,185.988800 
	C513.306274,188.142151 511.143799,191.380157 515.754944,192.268799 
	C516.360718,192.742172 516.569336,192.898895 516.823181,192.995392 
	C516.876221,193.440781 516.929199,193.886154 516.544556,194.662964 
	C515.084229,195.362610 514.061707,195.730865 513.039124,196.099121 
	C513.026001,197.831955 513.012817,199.564774 512.776367,201.770447 
	C512.719727,202.478134 512.886353,202.712997 513.052979,202.947861 
	C513.052979,202.947861 513.002441,203.001221 513.130249,203.207153 
	C513.540527,203.596069 513.822998,203.779068 514.105469,203.962051 
	C514.535706,203.979538 514.966003,203.997025 515.998596,204.338226 
	C518.832397,205.020081 521.063843,205.378235 523.295288,205.736374 
	C523.236389,206.005890 523.177551,206.275391 523.118652,206.544891 
	C520.749329,206.973053 518.379944,207.401199 516.010559,207.829361 
	C515.078247,208.124161 514.145996,208.418976 512.877441,208.117828 
	C511.092987,207.342606 509.644745,207.163330 508.196472,206.984070 
	C508.137146,206.536880 508.077820,206.089691 508.318787,205.083710 
	C508.467651,203.353745 508.316315,202.182541 508.164978,201.011353 
	C507.885834,200.386703 507.606720,199.762039 507.877319,198.873276 
	C508.345276,197.409653 508.263489,196.210129 508.181702,195.010605 
	C508.128021,194.558685 508.074371,194.106766 508.238617,193.226242 
	C508.360504,192.534653 508.264496,192.271683 508.168488,192.008698 
	C507.695374,190.681519 507.222229,189.354355 506.412659,188.070343 
z"/>
<path fill="#E9FDFD" opacity="1.000000" stroke="none" 
	d="
M488.100952,194.222015 
	C489.356445,193.718033 490.521149,193.344299 491.714722,193.177216 
	C493.338348,192.949936 494.984039,192.880508 497.026245,192.375488 
	C497.432220,192.007568 497.885925,191.954758 498.200317,191.944794 
	C498.997284,191.592667 499.479889,191.250504 499.973816,190.944992 
	C499.985138,190.981644 499.912903,190.955856 500.154419,190.853333 
	C500.584717,190.464645 500.773560,190.178482 500.988922,189.662567 
	C501.015442,189.432831 501.169556,188.996704 501.358307,188.741806 
	C501.427124,188.106995 501.307159,187.727066 501.176697,187.204926 
	C501.127594,186.782562 501.091583,186.501938 500.939178,185.955627 
	C500.510223,185.472733 500.200195,185.255035 499.662933,185.011993 
	C499.435699,184.986633 499.006012,184.830078 499.006012,184.830078 
	C499.226715,183.780869 499.447418,182.731674 499.668121,181.682465 
	C500.225647,181.502289 500.783173,181.322098 501.340698,181.141907 
	C502.019989,182.936447 502.588074,184.785950 503.434357,186.497940 
	C503.763855,187.164520 504.720337,187.521194 505.752441,188.047791 
	C506.072083,188.505478 506.030457,188.934418 505.575684,189.748260 
	C504.793793,191.114899 504.425079,192.096619 504.056335,193.078339 
	C504.056335,193.078339 504.013397,193.006714 503.812622,193.123596 
	C503.422546,193.519547 503.233307,193.798615 503.044067,194.077682 
	C503.044067,194.077682 503.008850,194.006454 502.821289,194.090118 
	C502.349396,194.319214 502.136963,194.535385 501.996521,194.822250 
	C502.125641,196.166504 501.955292,197.632874 502.443665,198.830673 
	C503.612579,201.697647 505.091400,204.438248 506.527252,207.399200 
	C501.210449,209.189590 500.778687,205.093506 498.974823,202.751236 
	C497.368286,200.665253 495.447601,198.821228 493.109222,196.694992 
	C491.014069,196.364349 489.475220,196.209122 487.936401,196.053909 
	C487.936401,196.053909 487.997192,196.000488 487.993530,195.745148 
	C487.981659,195.297211 487.973480,195.104614 487.965271,194.912003 
	C487.965271,194.912003 488.023041,194.444366 488.100952,194.222015 
z"/>
<path fill="#E4FEFE" opacity="1.000000" stroke="none" 
	d="
M512.915405,185.559174 
	C511.940735,184.784927 511.048096,183.581055 510.155426,182.377197 
	C509.642578,183.095764 509.129730,183.814316 508.390411,184.754501 
	C507.306519,180.676239 508.514008,178.369049 513.443481,178.955780 
	C516.203186,179.284241 519.058899,178.800568 521.820374,179.121475 
	C522.938660,179.251404 523.921143,180.549667 524.965454,181.316284 
	C523.874390,182.205109 522.903076,183.580765 521.668152,183.884369 
	C518.846375,184.578079 515.895752,184.747269 512.915405,185.559174 
z"/>
<path fill="#DEFDFC" opacity="1.000000" stroke="none" 
	d="
M487.967377,196.507996 
	C489.475220,196.209122 491.014069,196.364349 492.800262,196.815033 
	C493.047638,200.575287 493.047638,204.040070 493.047638,207.499100 
	C489.361694,208.675888 487.805389,207.551102 487.988037,203.926651 
	C488.104767,201.610840 488.002472,199.283981 487.967377,196.507996 
z"/>
<path fill="#E0FEFA" opacity="1.000000" stroke="none" 
	d="
M101.621536,123.066040 
	C102.744118,125.262978 100.116402,128.737091 104.698685,130.012711 
	C103.152916,132.107559 101.195648,134.180817 99.238388,136.254089 
	C98.667610,136.004547 98.096832,135.755020 97.526054,135.505493 
	C98.774620,131.414597 100.023178,127.323677 101.621536,123.066040 
z"/>
<path fill="#DCFDFB" opacity="1.000000" stroke="none" 
	d="
M330.461670,184.050232 
	C330.797974,183.041245 331.564087,181.979980 332.579559,180.573303 
	C331.170380,180.718445 329.895599,180.849747 328.258148,180.974274 
	C330.639435,180.316284 333.383392,179.665085 336.364441,179.319901 
	C336.716064,181.108017 336.830566,182.590134 336.945068,184.072250 
	C334.927185,184.047485 332.909363,184.022720 330.461670,184.050232 
z"/>
<path fill="#DEFFFD" opacity="1.000000" stroke="none" 
	d="
M205.510971,178.058121 
	C210.792007,177.744507 216.534195,177.372269 222.693466,177.013702 
	C217.397736,177.351425 211.684937,177.675461 205.510971,178.058121 
z"/>
<path fill="#E4FEFE" opacity="1.000000" stroke="none" 
	d="
M516.456787,207.902725 
	C518.379944,207.401199 520.749329,206.973053 523.118652,206.544891 
	C523.177551,206.275391 523.236389,206.005890 523.295288,205.736374 
	C521.063843,205.378235 518.832397,205.020081 516.311768,204.417419 
	C517.972168,204.119781 519.979553,203.761978 521.851624,204.117294 
	C523.168823,204.367264 524.301819,205.587021 525.517090,206.373749 
	C525.320068,206.907867 525.123047,207.441971 524.925964,207.976089 
	C522.251648,207.976089 519.577271,207.976089 516.456787,207.902725 
z"/>
<path fill="#EDFEFE" opacity="1.000000" stroke="none" 
	d="
M336.964966,184.047272 
	C336.830566,182.590134 336.716064,181.108017 336.790100,179.392700 
	C337.287201,179.227478 337.595795,179.295456 338.073730,179.867950 
	C338.531281,180.570312 338.819458,180.768143 339.107635,180.965988 
	C339.632874,181.910385 340.158112,182.854782 339.994598,183.902679 
	C338.513031,184.020523 337.720276,184.034866 336.927490,184.049194 
	C336.927490,184.049194 336.984863,184.022278 336.964966,184.047272 
z"/>
<path fill="#E1FDFD" opacity="1.000000" stroke="none" 
	d="
M438.310303,136.958923 
	C439.397858,136.253220 440.787109,135.670059 442.176331,135.086884 
	C442.429840,135.342636 442.683350,135.598389 442.936859,135.854141 
	C442.479401,136.546890 442.021942,137.239639 441.226776,137.988861 
	C440.130066,137.724045 439.371002,137.402756 438.310303,136.958923 
z"/>
<path fill="#DCFDFB" opacity="1.000000" stroke="none" 
	d="
M325.636169,182.030930 
	C325.579773,183.235748 325.198212,184.580231 324.495575,185.971115 
	C324.553345,184.735214 324.932220,183.452896 325.636169,182.030930 
z"/>
<path fill="#DEFFFD" opacity="1.000000" stroke="none" 
	d="
M227.409393,176.041382 
	C227.836884,175.414459 228.637848,174.738525 229.774094,174.046326 
	C229.333878,174.684143 228.558365,175.338257 227.409393,176.041382 
z"/>
<path fill="#E4FEFE" opacity="1.000000" stroke="none" 
	d="
M508.256226,207.368927 
	C509.644745,207.163330 511.092987,207.342606 512.753418,207.816238 
	C511.415741,207.991669 509.865875,207.872726 508.256226,207.368927 
z"/>
<path fill="#E4FEFE" opacity="1.000000" stroke="none" 
	d="
M508.090637,201.403931 
	C508.316315,202.182541 508.467651,203.353745 508.393982,204.751373 
	C508.118042,203.917374 508.067169,202.856934 508.090637,201.403931 
z"/>
<path fill="#E4FEFE" opacity="1.000000" stroke="none" 
	d="
M513.408691,196.047836 
	C514.061707,195.730865 515.084229,195.362610 516.461548,194.991455 
	C515.803589,195.324539 514.790894,195.660553 513.408691,196.047836 
z"/>
<path fill="#E4FEFE" opacity="1.000000" stroke="none" 
	d="
M508.104431,195.400116 
	C508.263489,196.210129 508.345276,197.409653 508.146881,198.781891 
	C507.920197,197.899612 507.973694,196.844620 508.104431,195.400116 
z"/>
<path fill="#DEFDFC" opacity="1.000000" stroke="none" 
	d="
M504.359131,192.961899 
	C504.425079,192.096619 504.793793,191.114899 505.496704,190.062241 
	C505.441254,190.942688 505.051575,191.894058 504.359131,192.961899 
z"/>
<path fill="#DCFDFB" opacity="1.000000" stroke="none" 
	d="
M337.055664,184.370682 
	C337.720276,184.034866 338.513031,184.020523 339.702271,184.021027 
	C339.127136,184.254654 338.155487,184.473419 337.055664,184.370682 
z"/>
<path fill="#DEFFFD" opacity="1.000000" stroke="none" 
	d="
M224.341309,176.906708 
	C224.795990,176.557480 225.602097,176.289062 226.743103,176.033478 
	C226.282898,176.360031 225.487823,176.673798 224.341309,176.906708 
z"/>
<path fill="#DCFDFB" opacity="1.000000" stroke="none" 
	d="
M330.065735,187.621460 
	C329.891083,187.415573 329.660553,186.886154 329.626038,186.180573 
	C329.884674,186.435562 329.947266,186.866760 330.065735,187.621460 
z"/>
<path fill="#E4FEFE" opacity="1.000000" stroke="none" 
	d="
M508.098999,192.253113 
	C508.264496,192.271683 508.360504,192.534653 508.315063,192.891235 
	C508.125549,192.822372 508.077545,192.659927 508.098999,192.253113 
z"/>
<path fill="#E4FEFE" opacity="1.000000" stroke="none" 
	d="
M516.872314,192.730423 
	C516.569336,192.898895 516.360718,192.742172 516.104126,192.350830 
	C516.314392,192.272766 516.617859,192.369110 516.872314,192.730423 
z"/>
<path fill="#DEFDFC" opacity="1.000000" stroke="none" 
	d="
M503.301636,194.006058 
	C503.233307,193.798615 503.422546,193.519547 503.850189,193.141815 
	C503.912109,193.340225 503.735687,193.637329 503.301636,194.006058 
z"/>
<path fill="#DEFDFC" opacity="1.000000" stroke="none" 
	d="
M502.260406,194.873032 
	C502.136963,194.535385 502.349396,194.319214 502.855377,194.110565 
	C502.892761,194.339493 502.708527,194.631653 502.260406,194.873032 
z"/>
<path fill="#DEFDFC" opacity="1.000000" stroke="none" 
	d="
M487.709595,194.997726 
	C487.973480,195.104614 487.981659,195.297211 487.970642,195.778473 
	C487.785583,195.739227 487.619781,195.411331 487.709595,194.997726 
z"/>
<path fill="#E4FEFE" opacity="1.000000" stroke="none" 
	d="
M513.012695,202.711090 
	C512.886353,202.712997 512.719727,202.478134 512.691162,202.129501 
	C512.829285,202.015732 512.972412,202.474304 513.012695,202.711090 
z"/>
<path fill="#E4FEFE" opacity="1.000000" stroke="none" 
	d="
M514.019043,203.711182 
	C513.822998,203.779068 513.540527,203.596069 513.152588,203.178833 
	C513.342285,203.116486 513.637512,203.288391 514.019043,203.711182 
z"/>
<path fill="#DCFDFB" opacity="1.000000" stroke="none" 
	d="
M339.026398,180.705566 
	C338.819458,180.768143 338.531281,180.570312 338.145416,180.123535 
	C338.346863,180.064789 338.646027,180.254974 339.026398,180.705566 
z"/>
<path fill="#E1FDFD" opacity="1.000000" stroke="none" 
	d="
M441.140778,140.246979 
	C441.482788,140.124832 441.700836,140.341705 441.906525,140.857361 
	C441.674530,140.892883 441.382080,140.702820 441.140778,140.246979 
z"/>
<path fill="#E1FDFD" opacity="1.000000" stroke="none" 
	d="
M443.095886,143.243927 
	C443.312561,143.164963 443.475739,143.318665 443.587982,143.503342 
	C443.618835,143.554062 443.497467,143.697372 443.301453,143.889267 
	C443.112366,143.816315 443.067810,143.652313 443.095886,143.243927 
z"/>
<path fill="#000000" opacity="1.000000" stroke="none" 
	d="
M209.005951,153.975494 
	C214.144440,153.975800 218.785522,153.975800 224.023804,153.975800 
	C224.023804,157.433762 224.531586,160.814972 223.815842,163.913574 
	C223.441544,165.534042 220.938095,167.783401 219.360550,167.812485 
	C212.298203,167.942688 205.208496,167.557266 198.158035,166.991837 
	C194.115784,166.667648 192.960968,168.476120 192.989990,172.045502 
	C193.050842,179.536438 192.861038,187.032639 193.080200,194.517700 
	C193.183838,198.057236 191.926239,199.450470 188.464035,199.018677 
	C184.740723,198.554306 179.394440,200.711945 179.103226,194.286194 
	C178.874863,189.247421 179.851776,184.165314 179.899918,179.098740 
	C179.932205,175.700806 179.542358,172.232819 178.753937,168.936691 
	C178.540375,168.043900 176.181412,167.112717 174.823334,167.136169 
	C166.925797,167.272598 159.034470,167.760437 151.136856,167.912216 
	C150.223907,167.929764 149.183945,166.698990 148.401947,165.861160 
	C148.022339,165.454468 148.054031,164.623199 147.983185,163.975006 
	C146.920837,154.256622 147.184921,153.970703 157.024445,153.978287 
	C162.851135,153.982788 168.677841,153.976059 174.504532,153.977402 
	C178.124405,153.978256 180.022568,153.408707 179.239502,148.594971 
	C178.408554,143.486847 179.579102,138.074875 179.635010,132.793045 
	C179.672073,129.291962 179.285995,125.786392 179.094101,122.367676 
	C179.481995,122.209450 179.635071,122.094322 179.790451,122.091110 
	C194.252731,121.791786 193.091064,120.799301 193.016098,134.337891 
	C192.988449,139.332016 193.211884,144.336975 192.947327,149.317154 
	C192.759201,152.858704 194.414993,153.978500 197.521271,153.978195 
	C201.183685,153.977829 204.846100,153.976242 209.005951,153.975494 
z"/>
<path fill="#000000" opacity="1.000000" stroke="none" 
	d="
M447.171753,124.997215 
	C447.171753,124.997215 447.014404,125.430885 446.689667,125.779808 
	C446.208496,126.739311 446.052063,127.349892 445.895630,127.960480 
	C445.895599,127.960472 445.971985,127.969772 445.616425,127.982864 
	C444.472626,128.319931 443.684357,128.643890 442.896118,128.967865 
	C442.896118,128.967865 442.436584,129.018967 441.889099,129.018112 
	C440.212952,128.968231 439.084290,128.919220 437.955597,128.870209 
	C437.493225,125.587891 437.030853,122.305573 436.353180,117.495102 
	C440.347565,118.796562 443.276367,119.750839 446.599976,121.264771 
	C447.053741,122.882011 447.112732,123.939613 447.171753,124.997215 
z"/>
<path fill="#E4FEFE" opacity="1.000000" stroke="none" 
	d="
M438.147217,129.145996 
	C439.084290,128.919220 440.212952,128.968231 441.671509,129.096191 
	C440.780548,129.257339 439.559662,129.339569 438.147217,129.145996 
z"/>
<path fill="#E4FEFE" opacity="1.000000" stroke="none" 
	d="
M447.399872,124.754715 
	C447.112732,123.939613 447.053741,122.882011 446.938934,121.429916 
	C447.131409,122.194351 447.379700,123.353279 447.399872,124.754715 
z"/>
<path fill="#E4FEFE" opacity="1.000000" stroke="none" 
	d="
M443.248352,128.977783 
	C443.684357,128.643890 444.472626,128.319931 445.612427,127.944611 
	C445.176178,128.258057 444.388397,128.622864 443.248352,128.977783 
z"/>
<path fill="#E4FEFE" opacity="1.000000" stroke="none" 
	d="
M446.165955,127.801239 
	C446.052063,127.349892 446.208496,126.739311 446.663818,126.009018 
	C446.787231,126.473534 446.611725,127.057762 446.165955,127.801239 
z"/>
<path fill="#000000" opacity="1.000000" stroke="none" 
	d="
M409.983673,131.984650 
	C411.073669,135.871902 411.073669,135.871902 404.671722,136.713913 
	C405.526062,132.854843 406.338562,129.184753 407.390778,124.431763 
	C408.468903,127.434685 409.214539,129.511597 409.983673,131.984650 
z"/>
<path fill="#000000" opacity="1.000000" stroke="none" 
	d="
M516.356140,129.783340 
	C517.088318,131.784241 517.577393,133.475433 517.976318,135.187637 
	C518.077881,135.623718 517.893250,136.126480 517.817627,136.798065 
	C516.016907,136.798065 514.255249,136.798065 511.544952,136.798065 
	C512.474915,133.087372 513.338196,129.642990 514.564758,124.748840 
	C515.347839,127.195183 515.713745,128.338303 516.356140,129.783340 
z"/>
<path fill="#000000" opacity="1.000000" stroke="none" 
	d="
M339.830383,130.019348 
	C337.051453,130.295547 335.640259,129.835266 335.950409,126.911926 
	C336.245087,124.134720 336.013855,121.301712 336.013855,118.521164 
	C343.347321,117.694130 345.607269,118.772713 346.018250,123.174980 
	C346.495117,128.283020 345.334747,129.666504 339.830383,130.019348 
z"/>
<path fill="#000000" opacity="1.000000" stroke="none" 
	d="
M501.058105,186.220840 
	C501.091583,186.501938 501.127594,186.782562 501.089844,187.475006 
	C501.065521,188.257111 501.117554,188.626907 501.169556,188.996704 
	C501.169556,188.996704 501.015442,189.432831 500.733124,189.746643 
	C500.271484,190.358902 500.092194,190.657379 499.912903,190.955856 
	C499.912903,190.955856 499.985138,190.981644 499.654816,190.989563 
	C498.844971,191.316574 498.365448,191.635666 497.885925,191.954758 
	C497.885925,191.954758 497.432220,192.007568 497.217773,192.086121 
	C492.454132,192.391571 492.552124,189.159698 493.110016,186.307571 
	C493.705353,183.264114 495.947998,183.413147 498.619659,184.788940 
	C499.006012,184.830078 499.435699,184.986633 499.763977,185.285538 
	C500.414215,185.796570 500.736176,186.008713 501.058105,186.220840 
z"/>
<path fill="#000000" opacity="1.000000" stroke="none" 
	d="
M364.707642,188.679489 
	C364.967590,187.007889 364.967590,185.713333 364.967590,184.466690 
	C371.399628,183.640060 372.234833,184.396332 372.030731,190.261993 
	C371.939087,192.895065 372.515991,195.666245 371.864563,198.130219 
	C371.299988,200.265701 369.429596,202.055969 368.136383,203.998840 
	C366.761353,202.305145 364.530975,200.760986 364.202881,198.884277 
	C363.649567,195.719360 364.302216,192.343613 364.707642,188.679489 
z"/>
<path fill="#000000" opacity="1.000000" stroke="none" 
	d="
M406.997437,191.414276 
	C407.459595,190.642227 407.919617,190.277176 408.379639,189.912125 
	C409.382172,192.393433 410.384674,194.874725 411.546906,197.751282 
	C409.292145,197.751282 407.721191,197.751282 405.944824,197.751282 
	C406.328766,195.583984 406.662079,193.702637 406.997437,191.414276 
z"/>
<path fill="#DEFDFC" opacity="1.000000" stroke="none" 
	d="
M498.200317,191.944794 
	C498.365448,191.635666 498.844971,191.316574 499.643494,190.952911 
	C499.479889,191.250504 498.997284,191.592667 498.200317,191.944794 
z"/>
<path fill="#DEFDFC" opacity="1.000000" stroke="none" 
	d="
M500.154419,190.853333 
	C500.092194,190.657379 500.271484,190.358902 500.706604,189.976379 
	C500.773560,190.178482 500.584717,190.464645 500.154419,190.853333 
z"/>
<path fill="#DEFDFC" opacity="1.000000" stroke="none" 
	d="
M501.358307,188.741806 
	C501.117554,188.626907 501.065521,188.257111 501.100372,187.617233 
	C501.307159,187.727066 501.427124,188.106995 501.358307,188.741806 
z"/>
<path fill="#DEFDFC" opacity="1.000000" stroke="none" 
	d="
M500.939178,185.955627 
	C500.736176,186.008713 500.414215,185.796570 499.991211,185.310883 
	C500.200195,185.255035 500.510223,185.472733 500.939178,185.955627 
z"/>
</svg>