<?xml version="1.0" standalone="no"?>
<!DOCTYPE svg PUBLIC "-//W3C//DTD SVG 20010904//EN"
 "http://www.w3.org/TR/2001/REC-SVG-20010904/DTD/svg10.dtd">
<svg version="1.0" xmlns="http://www.w3.org/2000/svg"
 width="64.000000pt" height="64.000000pt" viewBox="0 0 64.000000 64.000000"
 preserveAspectRatio="xMidYMid meet">

<g transform="translate(0.000000,64.000000) scale(0.100000,-0.100000)"
fill="#000000" stroke="none">
<path d="M259 571 c-52 -52 -27 -138 44 -156 55 -14 121 52 109 111 -2 13 -16
35 -29 49 -36 36 -86 34 -124 -4z m81 -26 c0 -8 7 -15 15 -15 8 0 15 -9 15
-20 0 -11 -6 -20 -14 -20 -7 0 -16 -9 -19 -20 -7 -25 -27 -26 -34 -1 -3 11
-13 21 -24 24 -25 7 -24 27 1 34 11 3 20 12 20 19 0 8 9 14 20 14 11 0 20 -7
20 -15z"/>
<path d="M567 413 c-11 -10 -8 -53 3 -53 6 0 10 14 10 30 0 31 -2 35 -13 23z"/>
<path d="M66 381 c-4 -7 -5 -15 -2 -18 9 -9 19 4 14 18 -4 11 -6 11 -12 0z"/>
<path d="M125 381 c-3 -5 -1 -12 5 -16 5 -3 10 1 10 9 0 18 -6 21 -15 7z"/>
<path d="M191 374 c0 -11 3 -14 6 -6 3 7 2 16 -1 19 -3 4 -6 -2 -5 -13z"/>
<path d="M250 376 c0 -9 5 -16 10 -16 6 0 10 4 10 9 0 6 -4 13 -10 16 -5 3
-10 -1 -10 -9z"/>
<path d="M310 375 c0 -8 5 -15 10 -15 6 0 10 7 10 15 0 8 -4 15 -10 15 -5 0
-10 -7 -10 -15z"/>
<path d="M376 381 c-4 -7 -5 -15 -2 -18 9 -9 19 4 14 18 -4 11 -6 11 -12 0z"/>
<path d="M441 374 c0 -11 3 -14 6 -6 3 7 2 16 -1 19 -3 4 -6 -2 -5 -13z"/>
<path d="M500 374 c0 -8 5 -12 10 -9 6 4 8 11 5 16 -9 14 -15 11 -15 -7z"/>
<path d="M397 273 c-13 -12 -7 -33 8 -33 8 0 15 9 15 20 0 20 -11 26 -23 13z"/>
<path d="M575 70 c-4 -6 -73 -10 -176 -10 -106 0 -169 -4 -169 -10 0 -6 73
-10 200 -10 193 0 200 1 200 20 0 15 -7 20 -24 20 -14 0 -28 -4 -31 -10z"/>
<path d="M10 50 c0 -5 16 -10 35 -10 19 0 35 5 35 10 0 6 -16 10 -35 10 -19 0
-35 -4 -35 -10z"/>
</g>
</svg>
